<svg width="222" height="250" viewBox="0 0 222 250" fill="none" xmlns="http://www.w3.org/2000/svg">
<g clip-path="url(#clip0_194_4101)">
<g clip-path="url(#clip1_194_4101)">
<path d="M9.38379 7.5V15.5H8.89551V8.01562H8.84863L7.05176 9.20703V8.68359L8.83301 7.5H9.38379ZM14.0781 7.5V15.5H13.5898V8.01562H13.543L11.7461 9.20703V8.68359L13.5273 7.5H14.0781Z" fill="white"/>
<path d="M32.3662 7.5H33.5225L36.2412 14.1406H36.335L39.0537 7.5H40.21V15.5H39.3037V9.42188H39.2256L36.7256 15.5H35.8506L33.3506 9.42188H33.2725V15.5H32.3662V7.5ZM44.4648 15.625C43.9232 15.625 43.4479 15.4961 43.0391 15.2383C42.6328 14.9805 42.3151 14.6198 42.0859 14.1562C41.8594 13.6927 41.7461 13.151 41.7461 12.5312C41.7461 11.9062 41.8594 11.3607 42.0859 10.8945C42.3151 10.4284 42.6328 10.0664 43.0391 9.80859C43.4479 9.55078 43.9232 9.42188 44.4648 9.42188C45.0065 9.42188 45.4805 9.55078 45.8867 9.80859C46.2956 10.0664 46.6133 10.4284 46.8398 10.8945C47.069 11.3607 47.1836 11.9062 47.1836 12.5312C47.1836 13.151 47.069 13.6927 46.8398 14.1562C46.6133 14.6198 46.2956 14.9805 45.8867 15.2383C45.4805 15.4961 45.0065 15.625 44.4648 15.625ZM44.4648 14.7969C44.8763 14.7969 45.2148 14.6914 45.4805 14.4805C45.7461 14.2695 45.9427 13.9922 46.0703 13.6484C46.1979 13.3047 46.2617 12.9323 46.2617 12.5312C46.2617 12.1302 46.1979 11.7565 46.0703 11.4102C45.9427 11.0638 45.7461 10.7839 45.4805 10.5703C45.2148 10.3568 44.8763 10.25 44.4648 10.25C44.0534 10.25 43.7148 10.3568 43.4492 10.5703C43.1836 10.7839 42.987 11.0638 42.8594 11.4102C42.7318 11.7565 42.668 12.1302 42.668 12.5312C42.668 12.9323 42.7318 13.3047 42.8594 13.6484C42.987 13.9922 43.1836 14.2695 43.4492 14.4805C43.7148 14.6914 44.0534 14.7969 44.4648 14.7969Z" fill="black"/>
<path d="M62.3574 8.35937V7.5H68.3574V8.35937H65.8418V15.5H64.873V8.35937H62.3574ZM72.6924 13.0469V9.5H73.6143V15.5H72.6924V14.4844H72.6299C72.4893 14.7891 72.2705 15.0482 71.9736 15.2617C71.6768 15.4727 71.3018 15.5781 70.8486 15.5781C70.4736 15.5781 70.1403 15.4961 69.8486 15.332C69.557 15.1654 69.3278 14.9154 69.1611 14.582C68.9945 14.2461 68.9111 13.8229 68.9111 13.3125V9.5H69.833V13.25C69.833 13.6875 69.9554 14.0365 70.2002 14.2969C70.4476 14.5573 70.7627 14.6875 71.1455 14.6875C71.3747 14.6875 71.6077 14.6289 71.8447 14.5117C72.0843 14.3945 72.2848 14.2148 72.4463 13.9727C72.6104 13.7305 72.6924 13.4219 72.6924 13.0469Z" fill="black"/>
<path d="M90.9941 15.5L88.8066 7.5H89.791L91.4629 14.0156H91.541L93.2441 7.5H94.3379L96.041 14.0156H96.1191L97.791 7.5H98.7754L96.5879 15.5H95.5879L93.8223 9.125H93.7598L91.9941 15.5H90.9941ZM101.814 15.625C101.236 15.625 100.738 15.4974 100.318 15.2422C99.9017 14.9844 99.5801 14.625 99.3535 14.1641C99.1296 13.7005 99.0176 13.1615 99.0176 12.5469C99.0176 11.9323 99.1296 11.3906 99.3535 10.9219C99.5801 10.4505 99.8952 10.0833 100.299 9.82031C100.705 9.55469 101.179 9.42188 101.721 9.42188C102.033 9.42188 102.342 9.47396 102.646 9.57812C102.951 9.68229 103.229 9.85156 103.479 10.0859C103.729 10.3177 103.928 10.625 104.076 11.0078C104.225 11.3906 104.299 11.862 104.299 12.4219V12.8125H99.6738V12.0156H103.361C103.361 11.6771 103.294 11.375 103.158 11.1094C103.025 10.8437 102.835 10.6341 102.588 10.4805C102.343 10.3268 102.054 10.25 101.721 10.25C101.354 10.25 101.036 10.3411 100.768 10.5234C100.502 10.7031 100.298 10.9375 100.154 11.2266C100.011 11.5156 99.9395 11.8255 99.9395 12.1562V12.6875C99.9395 13.1406 100.018 13.5247 100.174 13.8398C100.333 14.1523 100.553 14.3906 100.834 14.5547C101.115 14.7161 101.442 14.7969 101.814 14.7969C102.057 14.7969 102.275 14.763 102.471 14.6953C102.669 14.625 102.839 14.5208 102.982 14.3828C103.126 14.2422 103.236 14.0677 103.314 13.8594L104.205 14.1094C104.111 14.4115 103.954 14.6771 103.732 14.9062C103.511 15.1328 103.238 15.3099 102.912 15.4375C102.587 15.5625 102.221 15.625 101.814 15.625Z" fill="black"/>
<path d="M119.038 8.35937V7.5H125.038V8.35937H122.522V15.5H121.554V8.35937H119.038ZM127.33 11.8906V15.5H126.408V7.5H127.33V10.4375H127.408C127.549 10.1276 127.76 9.88151 128.041 9.69922C128.325 9.51432 128.702 9.42188 129.174 9.42188C129.583 9.42188 129.941 9.50391 130.248 9.66797C130.555 9.82943 130.794 10.0781 130.963 10.4141C131.135 10.7474 131.221 11.1719 131.221 11.6875V15.5H130.299V11.75C130.299 11.2734 130.175 10.9049 129.928 10.6445C129.683 10.3815 129.343 10.25 128.908 10.25C128.606 10.25 128.335 10.3138 128.096 10.4414C127.859 10.569 127.671 10.7552 127.533 11C127.398 11.2448 127.33 11.5417 127.33 11.8906Z" fill="black"/>
<path d="M149.584 15.5V7.5H154.381V8.35937H150.553V11.0625H154.021V11.9219H150.553V15.5H149.584ZM155.851 15.5V9.5H156.741V10.4062H156.804C156.913 10.1094 157.111 9.86849 157.397 9.68359C157.684 9.4987 158.007 9.40625 158.366 9.40625C158.434 9.40625 158.519 9.40755 158.62 9.41016C158.722 9.41276 158.799 9.41667 158.851 9.42188V10.3594C158.819 10.3516 158.748 10.3398 158.636 10.3242C158.526 10.306 158.41 10.2969 158.288 10.2969C157.996 10.2969 157.736 10.3581 157.507 10.4805C157.28 10.6003 157.101 10.7669 156.968 10.9805C156.838 11.1914 156.772 11.4323 156.772 11.7031V15.5H155.851Z" fill="black"/>
<path d="M181.165 9.5C181.118 9.10417 180.928 8.79688 180.595 8.57812C180.261 8.35937 179.853 8.25 179.368 8.25C179.014 8.25 178.704 8.30729 178.438 8.42187C178.175 8.53646 177.97 8.69401 177.821 8.89453C177.675 9.09505 177.603 9.32292 177.603 9.57812C177.603 9.79167 177.653 9.97526 177.755 10.1289C177.859 10.2799 177.992 10.4062 178.153 10.5078C178.315 10.6068 178.484 10.6888 178.661 10.7539C178.838 10.8164 179.001 10.8672 179.149 10.9062L179.962 11.125C180.17 11.1797 180.402 11.2552 180.657 11.3516C180.915 11.4479 181.161 11.5794 181.396 11.7461C181.632 11.9102 181.828 12.1211 181.981 12.3789C182.135 12.6367 182.212 12.9531 182.212 13.3281C182.212 13.7604 182.099 14.151 181.872 14.5C181.648 14.849 181.32 15.1263 180.888 15.332C180.458 15.5378 179.936 15.6406 179.321 15.6406C178.748 15.6406 178.252 15.5482 177.833 15.3633C177.416 15.1784 177.088 14.9206 176.849 14.5898C176.612 14.2591 176.478 13.875 176.446 13.4375H177.446C177.472 13.7396 177.574 13.9896 177.751 14.1875C177.931 14.3828 178.157 14.5286 178.431 14.625C178.707 14.7187 179.004 14.7656 179.321 14.7656C179.691 14.7656 180.023 14.7057 180.317 14.5859C180.612 14.4635 180.845 14.2943 181.017 14.0781C181.188 13.8594 181.274 13.6042 181.274 13.3125C181.274 13.0469 181.2 12.8307 181.052 12.6641C180.903 12.4974 180.708 12.362 180.466 12.2578C180.224 12.1536 179.962 12.0625 179.681 11.9844L178.696 11.7031C178.071 11.5234 177.576 11.2669 177.212 10.9336C176.847 10.6003 176.665 10.1641 176.665 9.625C176.665 9.17708 176.786 8.78646 177.028 8.45312C177.273 8.11719 177.601 7.85677 178.013 7.67187C178.427 7.48437 178.889 7.39062 179.399 7.39062C179.915 7.39062 180.373 7.48307 180.774 7.66797C181.175 7.85026 181.493 8.10026 181.728 8.41797C181.965 8.73568 182.09 9.09635 182.103 9.5H181.165ZM185.445 15.6406C185.065 15.6406 184.72 15.569 184.41 15.4258C184.1 15.2799 183.854 15.0703 183.672 14.7969C183.49 14.5208 183.398 14.1875 183.398 13.7969C183.398 13.4531 183.466 13.1745 183.602 12.9609C183.737 12.7448 183.918 12.5755 184.145 12.4531C184.371 12.3307 184.621 12.2396 184.895 12.1797C185.171 12.1172 185.448 12.0677 185.727 12.0313C186.091 11.9844 186.387 11.9492 186.613 11.9258C186.842 11.8997 187.009 11.8568 187.113 11.7969C187.22 11.737 187.273 11.6328 187.273 11.4844V11.4531C187.273 11.0677 187.168 10.7682 186.957 10.5547C186.749 10.3411 186.432 10.2344 186.008 10.2344C185.568 10.2344 185.223 10.3307 184.973 10.5234C184.723 10.7161 184.547 10.9219 184.445 11.1406L183.57 10.8281C183.727 10.4635 183.935 10.1797 184.195 9.97656C184.458 9.77083 184.745 9.6276 185.055 9.54687C185.367 9.46354 185.674 9.42188 185.977 9.42188C186.169 9.42188 186.391 9.44531 186.641 9.49219C186.893 9.53646 187.137 9.62891 187.371 9.76953C187.608 9.91016 187.805 10.1224 187.961 10.4062C188.117 10.6901 188.195 11.0703 188.195 11.5469V15.5H187.273V14.6875H187.227C187.164 14.8177 187.06 14.957 186.914 15.1055C186.768 15.2539 186.574 15.3802 186.332 15.4844C186.09 15.5885 185.794 15.6406 185.445 15.6406ZM185.586 14.8125C185.951 14.8125 186.258 14.7409 186.508 14.5977C186.76 14.4544 186.951 14.2695 187.078 14.043C187.208 13.8164 187.273 13.5781 187.273 13.3281V12.4844C187.234 12.5312 187.148 12.5742 187.016 12.6133C186.885 12.6497 186.734 12.6823 186.562 12.7109C186.393 12.737 186.228 12.7604 186.066 12.7812C185.908 12.7995 185.779 12.8151 185.68 12.8281C185.44 12.8594 185.216 12.9102 185.008 12.9805C184.802 13.0482 184.635 13.151 184.508 13.2891C184.383 13.4245 184.32 13.6094 184.32 13.8437C184.32 14.1641 184.439 14.4062 184.676 14.5703C184.915 14.7318 185.219 14.8125 185.586 14.8125Z" fill="#3AC569"/>
<path d="M209.641 9.5C209.594 9.10417 209.404 8.79688 209.07 8.57812C208.737 8.35937 208.328 8.25 207.844 8.25C207.49 8.25 207.18 8.30729 206.914 8.42187C206.651 8.53646 206.445 8.69401 206.297 8.89453C206.151 9.09505 206.078 9.32292 206.078 9.57812C206.078 9.79167 206.129 9.97526 206.23 10.1289C206.335 10.2799 206.467 10.4062 206.629 10.5078C206.79 10.6068 206.96 10.6888 207.137 10.7539C207.314 10.8164 207.477 10.8672 207.625 10.9062L208.438 11.125C208.646 11.1797 208.878 11.2552 209.133 11.3516C209.391 11.4479 209.637 11.5794 209.871 11.7461C210.108 11.9102 210.303 12.1211 210.457 12.3789C210.611 12.6367 210.688 12.9531 210.688 13.3281C210.688 13.7604 210.574 14.151 210.348 14.5C210.124 14.849 209.796 15.1263 209.363 15.332C208.934 15.5378 208.411 15.6406 207.797 15.6406C207.224 15.6406 206.728 15.5482 206.309 15.3633C205.892 15.1784 205.564 14.9206 205.324 14.5898C205.087 14.2591 204.953 13.875 204.922 13.4375H205.922C205.948 13.7396 206.049 13.9896 206.227 14.1875C206.406 14.3828 206.633 14.5286 206.906 14.625C207.182 14.7187 207.479 14.7656 207.797 14.7656C208.167 14.7656 208.499 14.7057 208.793 14.5859C209.087 14.4635 209.32 14.2943 209.492 14.0781C209.664 13.8594 209.75 13.6042 209.75 13.3125C209.75 13.0469 209.676 12.8307 209.527 12.6641C209.379 12.4974 209.184 12.362 208.941 12.2578C208.699 12.1536 208.438 12.0625 208.156 11.9844L207.172 11.7031C206.547 11.5234 206.052 11.2669 205.687 10.9336C205.323 10.6003 205.141 10.1641 205.141 9.625C205.141 9.17708 205.262 8.78646 205.504 8.45312C205.749 8.11719 206.077 7.85677 206.488 7.67187C206.902 7.48437 207.365 7.39062 207.875 7.39062C208.391 7.39062 208.849 7.48307 209.25 7.66797C209.651 7.85026 209.969 8.10026 210.203 8.41797C210.44 8.73568 210.565 9.09635 210.578 9.5H209.641ZM215.937 13.0469V9.5H216.858V15.5H215.937V14.4844H215.874C215.733 14.7891 215.515 15.0482 215.218 15.2617C214.921 15.4727 214.546 15.5781 214.093 15.5781C213.718 15.5781 213.384 15.4961 213.093 15.332C212.801 15.1654 212.572 14.9154 212.405 14.582C212.239 14.2461 212.155 13.8229 212.155 13.3125V9.5H213.077V13.25C213.077 13.6875 213.2 14.0365 213.444 14.2969C213.692 14.5573 214.007 14.6875 214.39 14.6875C214.619 14.6875 214.852 14.6289 215.089 14.5117C215.328 14.3945 215.529 14.2148 215.69 13.9727C215.854 13.7305 215.937 13.4219 215.937 13.0469Z" fill="#3AC569"/>
</g>
<g clip-path="url(#clip2_194_4101)">
<path d="M8.47266 53.6094C7.95703 53.6094 7.4974 53.5208 7.09375 53.3437C6.69271 53.1667 6.3737 52.9206 6.13672 52.6055C5.90234 52.2878 5.77474 51.9193 5.75391 51.5H6.73828C6.75911 51.7578 6.84766 51.9805 7.00391 52.168C7.16016 52.3529 7.36458 52.4961 7.61719 52.5977C7.86979 52.6992 8.14974 52.75 8.45703 52.75C8.80078 52.75 9.10547 52.6901 9.37109 52.5703C9.63672 52.4505 9.84505 52.2839 9.99609 52.0703C10.1471 51.8568 10.2227 51.6094 10.2227 51.3281C10.2227 51.0339 10.1497 50.7747 10.0039 50.5508C9.85807 50.3242 9.64453 50.1471 9.36328 50.0195C9.08203 49.8919 8.73828 49.8281 8.33203 49.8281H7.69141V48.9687H8.33203C8.64974 48.9687 8.92839 48.9115 9.16797 48.7969C9.41016 48.6823 9.59896 48.5208 9.73438 48.3125C9.8724 48.1042 9.94141 47.8594 9.94141 47.5781C9.94141 47.3073 9.88151 47.0716 9.76172 46.8711C9.64193 46.6706 9.47266 46.5143 9.25391 46.4023C9.03776 46.2904 8.78255 46.2344 8.48828 46.2344C8.21224 46.2344 7.95182 46.2852 7.70703 46.3867C7.46484 46.4857 7.26693 46.6302 7.11328 46.8203C6.95964 47.0078 6.8763 47.2344 6.86328 47.5H5.92578C5.94141 47.0807 6.06771 46.7135 6.30469 46.3984C6.54167 46.0807 6.85156 45.8333 7.23438 45.6562C7.61979 45.4792 8.04297 45.3906 8.50391 45.3906C8.9987 45.3906 9.42318 45.4909 9.77734 45.6914C10.1315 45.8893 10.4036 46.151 10.5938 46.4766C10.7839 46.8021 10.8789 47.1536 10.8789 47.5313C10.8789 47.9818 10.7604 48.3659 10.5234 48.6836C10.2891 49.0013 9.97005 49.2214 9.56641 49.3438V49.4062C10.0716 49.4896 10.4661 49.7044 10.75 50.0508C11.0339 50.3945 11.1758 50.8203 11.1758 51.3281C11.1758 51.763 11.0573 52.1536 10.8203 52.5C10.5859 52.8437 10.2656 53.1146 9.85938 53.3125C9.45313 53.5104 8.99089 53.6094 8.47266 53.6094ZM15.5859 45.5V53.5H14.6172V46.5156H14.5703L12.6172 47.8125V46.8281L14.6172 45.5H15.5859Z" fill="black"/>
<path d="M45.418 45.5V53.5H44.4492V46.5156H44.4023L42.4492 47.8125V46.8281L44.4492 45.5H45.418Z" fill="#010101"/>
<path d="M75.1641 53.5V52.7969L77.8047 49.9062C78.1146 49.5677 78.3698 49.2734 78.5703 49.0234C78.7708 48.7708 78.9193 48.5339 79.0156 48.3125C79.1146 48.0885 79.1641 47.8542 79.1641 47.6094C79.1641 47.3281 79.0964 47.0846 78.9609 46.8789C78.8281 46.6732 78.6458 46.5143 78.4141 46.4023C78.1823 46.2904 77.9219 46.2344 77.6328 46.2344C77.3255 46.2344 77.0573 46.2982 76.8281 46.4258C76.6016 46.5508 76.4258 46.7266 76.3008 46.9531C76.1784 47.1797 76.1172 47.4453 76.1172 47.75H75.1953C75.1953 47.2812 75.3034 46.8698 75.5195 46.5156C75.7357 46.1615 76.0299 45.8854 76.4023 45.6875C76.7773 45.4896 77.1979 45.3906 77.6641 45.3906C78.1328 45.3906 78.5482 45.4896 78.9102 45.6875C79.2721 45.8854 79.556 46.1523 79.7617 46.4883C79.9674 46.8242 80.0703 47.1979 80.0703 47.6094C80.0703 47.9036 80.0169 48.1914 79.9102 48.4727C79.806 48.7513 79.6237 49.0625 79.3633 49.4062C79.1055 49.7474 78.7474 50.1641 78.2891 50.6562L76.4922 52.5781V52.6406H80.2109V53.5H75.1641Z" fill="black"/>
<path d="M111.029 53.6094C110.514 53.6094 110.054 53.5208 109.65 53.3437C109.249 53.1667 108.93 52.9206 108.693 52.6055C108.459 52.2878 108.331 51.9193 108.311 51.5H109.295C109.316 51.7578 109.404 51.9805 109.561 52.168C109.717 52.3529 109.921 52.4961 110.174 52.5977C110.426 52.6992 110.706 52.75 111.014 52.75C111.357 52.75 111.662 52.6901 111.928 52.5703C112.193 52.4505 112.402 52.2839 112.553 52.0703C112.704 51.8568 112.779 51.6094 112.779 51.3281C112.779 51.0339 112.706 50.7747 112.561 50.5508C112.415 50.3242 112.201 50.1471 111.92 50.0195C111.639 49.8919 111.295 49.8281 110.889 49.8281H110.248V48.9687H110.889C111.206 48.9687 111.485 48.9115 111.725 48.7969C111.967 48.6823 112.156 48.5208 112.291 48.3125C112.429 48.1042 112.498 47.8594 112.498 47.5781C112.498 47.3073 112.438 47.0716 112.318 46.8711C112.199 46.6706 112.029 46.5143 111.811 46.4023C111.594 46.2904 111.339 46.2344 111.045 46.2344C110.769 46.2344 110.508 46.2852 110.264 46.3867C110.021 46.4857 109.824 46.6302 109.67 46.8203C109.516 47.0078 109.433 47.2344 109.42 47.5H108.482C108.498 47.0807 108.624 46.7135 108.861 46.3984C109.098 46.0807 109.408 45.8333 109.791 45.6562C110.176 45.4792 110.6 45.3906 111.061 45.3906C111.555 45.3906 111.98 45.4909 112.334 45.6914C112.688 45.8893 112.96 46.151 113.15 46.4766C113.34 46.8021 113.436 47.1536 113.436 47.5313C113.436 47.9818 113.317 48.3659 113.08 48.6836C112.846 49.0013 112.527 49.2214 112.123 49.3438V49.4062C112.628 49.4896 113.023 49.7044 113.307 50.0508C113.59 50.3945 113.732 50.8203 113.732 51.3281C113.732 51.763 113.614 52.1536 113.377 52.5C113.143 52.8437 112.822 53.1146 112.416 53.3125C112.01 53.5104 111.548 53.6094 111.029 53.6094Z" fill="black"/>
<path d="M141.446 51.8594V51.0625L144.961 45.5H145.54V46.7344H145.149L142.493 50.9375V51H147.227V51.8594H141.446ZM145.211 53.5V51.6172V51.2461V45.5H146.133V53.5H145.211Z" fill="black"/>
<path d="M177.648 53.6094C177.19 53.6094 176.777 53.5182 176.41 53.3359C176.042 53.1536 175.748 52.9036 175.527 52.5859C175.306 52.2682 175.184 51.9062 175.164 51.5H176.101C176.138 51.862 176.302 52.1615 176.593 52.3984C176.888 52.6328 177.239 52.75 177.648 52.75C177.976 52.75 178.268 52.6732 178.523 52.5195C178.781 52.3659 178.983 52.1549 179.128 51.8867C179.277 51.6159 179.351 51.3099 179.351 50.9687C179.351 50.6198 179.274 50.3086 179.121 50.0352C178.97 49.7591 178.761 49.5417 178.496 49.3828C178.23 49.224 177.927 49.1432 177.585 49.1406C177.341 49.138 177.089 49.1758 176.832 49.2539C176.574 49.3294 176.361 49.4271 176.195 49.5469L175.289 49.4375L175.773 45.5H179.929V46.3594H176.585L176.304 48.7187H176.351C176.515 48.5885 176.721 48.4805 176.968 48.3945C177.216 48.3086 177.473 48.2656 177.742 48.2656C178.231 48.2656 178.667 48.3828 179.05 48.6172C179.436 48.849 179.738 49.1667 179.957 49.5703C180.178 49.974 180.289 50.4349 180.289 50.9531C180.289 51.4635 180.174 51.9193 179.945 52.3203C179.718 52.7187 179.406 53.0339 179.007 53.2656C178.609 53.4948 178.156 53.6094 177.648 53.6094Z" fill="#3AC569"/>
<path d="M211.052 53.6094C210.724 53.6042 210.396 53.5417 210.068 53.4219C209.74 53.3021 209.44 53.1003 209.169 52.8164C208.899 52.5299 208.681 52.1432 208.517 51.6562C208.353 51.1667 208.271 50.5521 208.271 49.8125C208.271 49.1042 208.337 48.4766 208.47 47.9297C208.603 47.3802 208.796 46.918 209.048 46.543C209.301 46.1654 209.606 45.8789 209.962 45.6836C210.322 45.4883 210.727 45.3906 211.177 45.3906C211.625 45.3906 212.024 45.4805 212.373 45.6602C212.724 45.8372 213.011 46.0846 213.232 46.4023C213.453 46.7201 213.597 47.0859 213.662 47.5H212.708C212.62 47.1406 212.448 46.8424 212.193 46.6055C211.938 46.3685 211.599 46.25 211.177 46.25C210.557 46.25 210.069 46.5195 209.712 47.0586C209.358 47.5977 209.18 48.3542 209.177 49.3281H209.24C209.386 49.1068 209.559 48.918 209.759 48.7617C209.962 48.6029 210.186 48.4805 210.431 48.3945C210.676 48.3086 210.935 48.2656 211.208 48.2656C211.667 48.2656 212.086 48.3802 212.466 48.6094C212.847 48.8359 213.151 49.1497 213.38 49.5508C213.61 49.9492 213.724 50.4062 213.724 50.9219C213.724 51.4167 213.613 51.8698 213.392 52.2812C213.171 52.6901 212.86 53.0156 212.458 53.2578C212.06 53.4974 211.591 53.6146 211.052 53.6094ZM211.052 52.75C211.38 52.75 211.675 52.668 211.935 52.5039C212.198 52.3398 212.405 52.1198 212.556 51.8437C212.71 51.5677 212.787 51.2604 212.787 50.9219C212.787 50.5911 212.712 50.2904 212.564 50.0195C212.418 49.7461 212.216 49.5286 211.958 49.3672C211.703 49.2057 211.412 49.125 211.083 49.125C210.836 49.125 210.606 49.1745 210.392 49.2734C210.179 49.3698 209.991 49.5026 209.83 49.6719C209.671 49.8411 209.546 50.0352 209.455 50.2539C209.363 50.4701 209.318 50.6979 209.318 50.9375C209.318 51.2552 209.392 51.5521 209.541 51.8281C209.692 52.1042 209.897 52.3268 210.158 52.4961C210.421 52.6654 210.719 52.75 211.052 52.75Z" fill="#3AC569"/>
</g>
<g clip-path="url(#clip3_194_4101)">
<path d="M8.93604 91.5L12.5142 84.4219V84.3594H8.38916V83.5H13.5142V84.4062L9.95166 91.5H8.93604Z" fill="black"/>
<path d="M44.3354 91.6094C43.799 91.6094 43.325 91.5143 42.9136 91.3242C42.5047 91.1315 42.1857 90.8672 41.9565 90.5312C41.7274 90.1927 41.6141 89.8073 41.6167 89.375C41.6141 89.0365 41.6805 88.724 41.8159 88.4375C41.9513 88.1484 42.1362 87.9076 42.3706 87.7148C42.6076 87.5195 42.8719 87.3958 43.1636 87.3438V87.2969C42.7808 87.1979 42.4761 86.9831 42.2495 86.6523C42.0229 86.319 41.911 85.9401 41.9136 85.5156C41.911 85.1094 42.0138 84.7461 42.2222 84.4258C42.4305 84.1055 42.717 83.8529 43.0815 83.668C43.4487 83.4831 43.8667 83.3906 44.3354 83.3906C44.799 83.3906 45.2131 83.4831 45.5776 83.668C45.9422 83.8529 46.2287 84.1055 46.437 84.4258C46.6479 84.7461 46.7547 85.1094 46.7573 85.5156C46.7547 85.9401 46.6388 86.319 46.4097 86.6523C46.1831 86.9831 45.8823 87.1979 45.5073 87.2969V87.3438C45.7964 87.3958 46.0568 87.5195 46.2886 87.7148C46.5203 87.9076 46.7052 88.1484 46.8433 88.4375C46.9813 88.724 47.0516 89.0365 47.0542 89.375C47.0516 89.8073 46.9344 90.1927 46.7026 90.5312C46.4735 90.8672 46.1545 91.1315 45.7456 91.3242C45.3394 91.5143 44.8693 91.6094 44.3354 91.6094ZM44.3354 90.75C44.6974 90.75 45.0099 90.6914 45.2729 90.5742C45.536 90.457 45.7391 90.2917 45.8823 90.0781C46.0256 89.8646 46.0985 89.6146 46.1011 89.3281C46.0985 89.026 46.0203 88.7591 45.8667 88.5273C45.7131 88.2956 45.5034 88.1133 45.2378 87.9805C44.9748 87.8477 44.674 87.7812 44.3354 87.7812C43.9943 87.7812 43.6896 87.8477 43.4214 87.9805C43.1558 88.1133 42.9461 88.2956 42.7925 88.5273C42.6414 88.7591 42.5672 89.026 42.5698 89.3281C42.5672 89.6146 42.6362 89.8646 42.7769 90.0781C42.9201 90.2917 43.1245 90.457 43.3901 90.5742C43.6558 90.6914 43.9709 90.75 44.3354 90.75ZM44.3354 86.9531C44.6219 86.9531 44.8758 86.8958 45.0972 86.7812C45.3211 86.6667 45.4969 86.5065 45.6245 86.3008C45.7521 86.0951 45.8172 85.8542 45.8198 85.5781C45.8172 85.3073 45.7534 85.0716 45.6284 84.8711C45.5034 84.668 45.3302 84.5117 45.1089 84.4023C44.8875 84.2904 44.6297 84.2344 44.3354 84.2344C44.036 84.2344 43.7743 84.2904 43.5503 84.4023C43.3263 84.5117 43.1532 84.668 43.0308 84.8711C42.9084 85.0716 42.8485 85.3073 42.8511 85.5781C42.8485 85.8542 42.9097 86.0951 43.0347 86.3008C43.1623 86.5065 43.3381 86.6667 43.562 86.7812C43.786 86.8958 44.0438 86.9531 44.3354 86.9531Z" fill="black"/>
<path d="M77.6089 83.3906C77.937 83.3932 78.2651 83.4557 78.5933 83.5781C78.9214 83.7005 79.2209 83.9036 79.4917 84.1875C79.7625 84.4687 79.98 84.8529 80.144 85.3398C80.3081 85.8268 80.3901 86.4375 80.3901 87.1719C80.3901 87.8828 80.3224 88.5143 80.187 89.0664C80.0542 89.6159 79.8615 90.0794 79.6089 90.457C79.3589 90.8346 79.0542 91.1211 78.6948 91.3164C78.3381 91.5117 77.9344 91.6094 77.4839 91.6094C77.036 91.6094 76.6362 91.5208 76.2847 91.3437C75.9357 91.1641 75.6493 90.9154 75.4253 90.5977C75.2039 90.2773 75.062 89.9062 74.9995 89.4844H75.9526C76.0386 89.8516 76.2091 90.1549 76.4644 90.3945C76.7222 90.6315 77.062 90.75 77.4839 90.75C78.1011 90.75 78.5881 90.4805 78.9448 89.9414C79.3042 89.4023 79.4839 88.6406 79.4839 87.6562H79.4214C79.2756 87.875 79.1024 88.0638 78.9019 88.2227C78.7013 88.3815 78.4787 88.5039 78.2339 88.5898C77.9891 88.6758 77.7287 88.7188 77.4526 88.7188C76.9943 88.7188 76.5737 88.6055 76.1909 88.3789C75.8107 88.1497 75.506 87.8359 75.2769 87.4375C75.0503 87.0365 74.937 86.5781 74.937 86.0625C74.937 85.5729 75.0464 85.125 75.2651 84.7187C75.4865 84.3099 75.7964 83.9844 76.1948 83.7422C76.5959 83.5 77.0672 83.3828 77.6089 83.3906ZM77.6089 84.25C77.2808 84.25 76.9852 84.332 76.7222 84.4961C76.4618 84.6576 76.2547 84.8763 76.1011 85.1523C75.95 85.4258 75.8745 85.7292 75.8745 86.0625C75.8745 86.3958 75.9474 86.6992 76.0933 86.9727C76.2417 87.2435 76.4435 87.4596 76.6987 87.6211C76.9565 87.7799 77.2495 87.8594 77.5776 87.8594C77.825 87.8594 78.0555 87.8112 78.269 87.7148C78.4826 87.6159 78.6688 87.4818 78.8276 87.3125C78.9891 87.1406 79.1154 86.9466 79.2065 86.7305C79.2977 86.5117 79.3433 86.2839 79.3433 86.0469C79.3433 85.7344 79.2677 85.4414 79.1167 85.168C78.9683 84.8945 78.7625 84.6732 78.4995 84.5039C78.2391 84.3346 77.9422 84.25 77.6089 84.25Z" fill="black"/>
<path d="M108.646 83.5V91.5H107.678V84.5156H107.631L105.678 85.8125V84.8281L107.678 83.5H108.646ZM113.557 91.6094C112.968 91.6094 112.467 91.4492 112.053 91.1289C111.639 90.806 111.322 90.3385 111.104 89.7266C110.885 89.112 110.775 88.3698 110.775 87.5C110.775 86.6354 110.885 85.8971 111.104 85.2852C111.325 84.6706 111.643 84.2018 112.057 83.8789C112.473 83.5534 112.973 83.3906 113.557 83.3906C114.14 83.3906 114.639 83.5534 115.053 83.8789C115.469 84.2018 115.787 84.6706 116.006 85.2852C116.227 85.8971 116.338 86.6354 116.338 87.5C116.338 88.3698 116.229 89.112 116.01 89.7266C115.791 90.3385 115.475 90.806 115.061 91.1289C114.646 91.4492 114.145 91.6094 113.557 91.6094ZM113.557 90.75C114.14 90.75 114.593 90.4687 114.916 89.9062C115.239 89.3437 115.4 88.5417 115.4 87.5C115.4 86.8073 115.326 86.2174 115.178 85.7305C115.032 85.2435 114.821 84.8724 114.545 84.6172C114.271 84.362 113.942 84.2344 113.557 84.2344C112.979 84.2344 112.527 84.5195 112.201 85.0898C111.876 85.6576 111.713 86.4609 111.713 87.5C111.713 88.1927 111.786 88.7812 111.932 89.2656C112.077 89.75 112.287 90.1185 112.561 90.3711C112.837 90.6237 113.169 90.75 113.557 90.75Z" fill="black"/>
<path d="M142.861 83.5V91.5H141.893V84.5156H141.846L139.893 85.8125V84.8281L141.893 83.5H142.861ZM147.975 83.5V91.5H147.006V84.5156H146.959L145.006 85.8125V84.8281L147.006 83.5H147.975Z" fill="black"/>
<rect x="166.666" y="76" width="22" height="22" rx="4" fill="#3AC569"/>
<path d="M175.42 83.5V91.5H174.451V84.5156H174.404L172.451 85.8125V84.8281L174.451 83.5H175.42ZM177.721 91.5V90.7969L180.361 87.9062C180.671 87.5677 180.926 87.2734 181.127 87.0234C181.327 86.7708 181.476 86.5339 181.572 86.3125C181.671 86.0885 181.721 85.8542 181.721 85.6094C181.721 85.3281 181.653 85.0846 181.518 84.8789C181.385 84.6732 181.202 84.5143 180.971 84.4023C180.739 84.2904 180.479 84.2344 180.189 84.2344C179.882 84.2344 179.614 84.2982 179.385 84.4258C179.158 84.5508 178.982 84.7266 178.857 84.9531C178.735 85.1797 178.674 85.4453 178.674 85.75H177.752C177.752 85.2812 177.86 84.8698 178.076 84.5156C178.292 84.1615 178.587 83.8854 178.959 83.6875C179.334 83.4896 179.755 83.3906 180.221 83.3906C180.689 83.3906 181.105 83.4896 181.467 83.6875C181.829 83.8854 182.113 84.1523 182.318 84.4883C182.524 84.8242 182.627 85.1979 182.627 85.6094C182.627 85.9036 182.574 86.1914 182.467 86.4727C182.363 86.7513 182.18 87.0625 181.92 87.4062C181.662 87.7474 181.304 88.1641 180.846 88.6562L179.049 90.5781V90.6406H182.768V91.5H177.721Z" fill="white"/>
<path d="M208.582 83.5V91.5H207.613V84.5156H207.566L205.613 85.8125V84.8281L207.613 83.5H208.582ZM213.586 91.6094C213.07 91.6094 212.611 91.5208 212.207 91.3437C211.806 91.1667 211.487 90.9206 211.25 90.6055C211.016 90.2878 210.888 89.9193 210.867 89.5H211.852C211.872 89.7578 211.961 89.9805 212.117 90.168C212.273 90.3529 212.478 90.4961 212.73 90.5977C212.983 90.6992 213.263 90.75 213.57 90.75C213.914 90.75 214.219 90.6901 214.484 90.5703C214.75 90.4505 214.958 90.2839 215.109 90.0703C215.26 89.8568 215.336 89.6094 215.336 89.3281C215.336 89.0339 215.263 88.7747 215.117 88.5508C214.971 88.3242 214.758 88.1471 214.477 88.0195C214.195 87.8919 213.852 87.8281 213.445 87.8281H212.805V86.9687H213.445C213.763 86.9687 214.042 86.9115 214.281 86.7969C214.523 86.6823 214.712 86.5208 214.848 86.3125C214.986 86.1042 215.055 85.8594 215.055 85.5781C215.055 85.3073 214.995 85.0716 214.875 84.8711C214.755 84.6706 214.586 84.5143 214.367 84.4023C214.151 84.2904 213.896 84.2344 213.602 84.2344C213.326 84.2344 213.065 84.2852 212.82 84.3867C212.578 84.4857 212.38 84.6302 212.227 84.8203C212.073 85.0078 211.99 85.2344 211.977 85.5H211.039C211.055 85.0807 211.181 84.7135 211.418 84.3984C211.655 84.0807 211.965 83.8333 212.348 83.6562C212.733 83.4792 213.156 83.3906 213.617 83.3906C214.112 83.3906 214.536 83.4909 214.891 83.6914C215.245 83.8893 215.517 84.151 215.707 84.4766C215.897 84.8021 215.992 85.1536 215.992 85.5313C215.992 85.9818 215.874 86.3659 215.637 86.6836C215.402 87.0013 215.083 87.2214 214.68 87.3438V87.4062C215.185 87.4896 215.579 87.7044 215.863 88.0508C216.147 88.3945 216.289 88.8203 216.289 89.3281C216.289 89.763 216.171 90.1536 215.934 90.5C215.699 90.8437 215.379 91.1146 214.973 91.3125C214.566 91.5104 214.104 91.6094 213.586 91.6094Z" fill="#3AC569"/>
</g>
<g clip-path="url(#clip4_194_4101)">
<path d="M8.55518 121.5V129.5H7.58643V122.516H7.53955L5.58643 123.812V122.828L7.58643 121.5H8.55518ZM10.6685 127.859V127.062L14.1841 121.5H14.7622V122.734H14.3716L11.7153 126.937V127H16.4497V127.859H10.6685ZM14.4341 129.5V127.617V127.246V121.5H15.356V129.5H14.4341Z" fill="black"/>
<path d="M42.0718 121.5V129.5H41.103V122.516H41.0562L39.103 123.812V122.828L41.103 121.5H42.0718ZM46.8726 129.609C46.4142 129.609 46.0015 129.518 45.6343 129.336C45.2671 129.154 44.9728 128.904 44.7515 128.586C44.5301 128.268 44.409 127.906 44.3882 127.5H45.3257C45.3621 127.862 45.5262 128.161 45.8179 128.398C46.1121 128.633 46.4637 128.75 46.8726 128.75C47.2007 128.75 47.4924 128.673 47.7476 128.52C48.0054 128.366 48.2072 128.155 48.353 127.887C48.5015 127.616 48.5757 127.31 48.5757 126.969C48.5757 126.62 48.4989 126.309 48.3452 126.035C48.1942 125.759 47.9858 125.542 47.7202 125.383C47.4546 125.224 47.1512 125.143 46.8101 125.141C46.5653 125.138 46.314 125.176 46.0562 125.254C45.7983 125.329 45.5861 125.427 45.4194 125.547L44.5132 125.437L44.9976 121.5H49.1538V122.359H45.8101L45.5288 124.719H45.5757C45.7397 124.589 45.9455 124.48 46.1929 124.395C46.4403 124.309 46.6981 124.266 46.9663 124.266C47.4559 124.266 47.8921 124.383 48.2749 124.617C48.6603 124.849 48.9624 125.167 49.1812 125.57C49.4025 125.974 49.5132 126.435 49.5132 126.953C49.5132 127.464 49.3986 127.919 49.1694 128.32C48.9429 128.719 48.6304 129.034 48.2319 129.266C47.8335 129.495 47.3804 129.609 46.8726 129.609Z" fill="black"/>
<path d="M75.3179 121.5V129.5H74.3491V122.516H74.3022L72.3491 123.812V122.828L74.3491 121.5H75.3179ZM80.2749 129.609C79.9468 129.604 79.6187 129.542 79.2905 129.422C78.9624 129.302 78.6629 129.1 78.3921 128.816C78.1213 128.53 77.9038 128.143 77.7397 127.656C77.5757 127.167 77.4937 126.552 77.4937 125.812C77.4937 125.104 77.5601 124.477 77.6929 123.93C77.8257 123.38 78.0184 122.918 78.271 122.543C78.5236 122.165 78.8283 121.879 79.1851 121.684C79.5444 121.488 79.9494 121.391 80.3999 121.391C80.8478 121.391 81.2463 121.48 81.5952 121.66C81.9468 121.837 82.2332 122.085 82.4546 122.402C82.6759 122.72 82.8192 123.086 82.8843 123.5H81.9312C81.8426 123.141 81.6707 122.842 81.4155 122.605C81.1603 122.368 80.8218 122.25 80.3999 122.25C79.7801 122.25 79.2918 122.52 78.9351 123.059C78.5809 123.598 78.4025 124.354 78.3999 125.328H78.4624C78.6082 125.107 78.7814 124.918 78.9819 124.762C79.1851 124.603 79.409 124.48 79.6538 124.395C79.8986 124.309 80.1577 124.266 80.4312 124.266C80.8895 124.266 81.3088 124.38 81.689 124.609C82.0692 124.836 82.3739 125.15 82.603 125.551C82.8322 125.949 82.9468 126.406 82.9468 126.922C82.9468 127.417 82.8361 127.87 82.6147 128.281C82.3934 128.69 82.0822 129.016 81.6812 129.258C81.2827 129.497 80.814 129.615 80.2749 129.609ZM80.2749 128.75C80.603 128.75 80.8973 128.668 81.1577 128.504C81.4207 128.34 81.6278 128.12 81.7788 127.844C81.9325 127.568 82.0093 127.26 82.0093 126.922C82.0093 126.591 81.9351 126.29 81.7866 126.02C81.6408 125.746 81.439 125.529 81.1812 125.367C80.9259 125.206 80.6343 125.125 80.3062 125.125C80.0588 125.125 79.8283 125.174 79.6147 125.273C79.4012 125.37 79.2137 125.503 79.0522 125.672C78.8934 125.841 78.7684 126.035 78.6772 126.254C78.5861 126.47 78.5405 126.698 78.5405 126.937C78.5405 127.255 78.6147 127.552 78.7632 127.828C78.9142 128.104 79.12 128.327 79.3804 128.496C79.6434 128.665 79.9416 128.75 80.2749 128.75Z" fill="black"/>
<path d="M108.942 121.5V129.5H107.973V122.516H107.926L105.973 123.812V122.828L107.973 121.5H108.942ZM111.493 129.5L115.071 122.422V122.359H110.946V121.5H116.071V122.406L112.508 129.5H111.493Z" fill="black"/>
<path d="M142.029 121.5V129.5H141.06V122.516H141.013L139.06 123.812V122.828L141.06 121.5H142.029ZM146.892 129.609C146.356 129.609 145.882 129.514 145.47 129.324C145.061 129.132 144.742 128.867 144.513 128.531C144.284 128.193 144.171 127.807 144.173 127.375C144.171 127.036 144.237 126.724 144.373 126.437C144.508 126.148 144.693 125.908 144.927 125.715C145.164 125.52 145.429 125.396 145.72 125.344V125.297C145.337 125.198 145.033 124.983 144.806 124.652C144.58 124.319 144.468 123.94 144.47 123.516C144.468 123.109 144.57 122.746 144.779 122.426C144.987 122.105 145.274 121.853 145.638 121.668C146.005 121.483 146.423 121.391 146.892 121.391C147.356 121.391 147.77 121.483 148.134 121.668C148.499 121.853 148.785 122.105 148.994 122.426C149.205 122.746 149.311 123.109 149.314 123.516C149.311 123.94 149.195 124.319 148.966 124.652C148.74 124.983 148.439 125.198 148.064 125.297V125.344C148.353 125.396 148.613 125.52 148.845 125.715C149.077 125.908 149.262 126.148 149.4 126.437C149.538 126.724 149.608 127.036 149.611 127.375C149.608 127.807 149.491 128.193 149.259 128.531C149.03 128.867 148.711 129.132 148.302 129.324C147.896 129.514 147.426 129.609 146.892 129.609ZM146.892 128.75C147.254 128.75 147.567 128.691 147.83 128.574C148.093 128.457 148.296 128.292 148.439 128.078C148.582 127.865 148.655 127.615 148.658 127.328C148.655 127.026 148.577 126.759 148.423 126.527C148.27 126.296 148.06 126.113 147.794 125.98C147.531 125.848 147.231 125.781 146.892 125.781C146.551 125.781 146.246 125.848 145.978 125.98C145.712 126.113 145.503 126.296 145.349 126.527C145.198 126.759 145.124 127.026 145.126 127.328C145.124 127.615 145.193 127.865 145.333 128.078C145.477 128.292 145.681 128.457 145.947 128.574C146.212 128.691 146.528 128.75 146.892 128.75ZM146.892 124.953C147.179 124.953 147.432 124.896 147.654 124.781C147.878 124.667 148.054 124.507 148.181 124.301C148.309 124.095 148.374 123.854 148.376 123.578C148.374 123.307 148.31 123.072 148.185 122.871C148.06 122.668 147.887 122.512 147.666 122.402C147.444 122.29 147.186 122.234 146.892 122.234C146.593 122.234 146.331 122.29 146.107 122.402C145.883 122.512 145.71 122.668 145.587 122.871C145.465 123.072 145.405 123.307 145.408 123.578C145.405 123.854 145.466 124.095 145.591 124.301C145.719 124.507 145.895 124.667 146.119 124.781C146.343 124.896 146.6 124.953 146.892 124.953Z" fill="black"/>
<path d="M175.318 121.5V129.5H174.349V122.516H174.302L172.349 123.812V122.828L174.349 121.5H175.318ZM180.166 121.391C180.494 121.393 180.822 121.456 181.15 121.578C181.478 121.701 181.778 121.904 182.048 122.187C182.319 122.469 182.537 122.853 182.701 123.34C182.865 123.827 182.947 124.437 182.947 125.172C182.947 125.883 182.879 126.514 182.744 127.066C182.611 127.616 182.418 128.079 182.166 128.457C181.916 128.835 181.611 129.121 181.251 129.316C180.895 129.512 180.491 129.609 180.041 129.609C179.593 129.609 179.193 129.521 178.841 129.344C178.492 129.164 178.206 128.915 177.982 128.598C177.761 128.277 177.619 127.906 177.556 127.484H178.509C178.595 127.852 178.766 128.155 179.021 128.395C179.279 128.632 179.619 128.75 180.041 128.75C180.658 128.75 181.145 128.48 181.501 127.941C181.861 127.402 182.041 126.641 182.041 125.656H181.978C181.832 125.875 181.659 126.064 181.458 126.223C181.258 126.382 181.035 126.504 180.791 126.59C180.546 126.676 180.285 126.719 180.009 126.719C179.551 126.719 179.13 126.605 178.748 126.379C178.367 126.15 178.063 125.836 177.833 125.437C177.607 125.036 177.494 124.578 177.494 124.062C177.494 123.573 177.603 123.125 177.822 122.719C178.043 122.31 178.353 121.984 178.751 121.742C179.153 121.5 179.624 121.383 180.166 121.391ZM180.166 122.25C179.837 122.25 179.542 122.332 179.279 122.496C179.018 122.658 178.811 122.876 178.658 123.152C178.507 123.426 178.431 123.729 178.431 124.062C178.431 124.396 178.504 124.699 178.65 124.973C178.798 125.243 179 125.46 179.255 125.621C179.513 125.78 179.806 125.859 180.134 125.859C180.382 125.859 180.612 125.811 180.826 125.715C181.039 125.616 181.225 125.482 181.384 125.312C181.546 125.141 181.672 124.947 181.763 124.73C181.854 124.512 181.9 124.284 181.9 124.047C181.9 123.734 181.824 123.441 181.673 123.168C181.525 122.895 181.319 122.673 181.056 122.504C180.796 122.335 180.499 122.25 180.166 122.25Z" fill="#3AC569"/>
<path d="M205.061 129.5V128.797L207.701 125.906C208.011 125.568 208.266 125.273 208.467 125.023C208.667 124.771 208.816 124.534 208.912 124.312C209.011 124.089 209.061 123.854 209.061 123.609C209.061 123.328 208.993 123.085 208.857 122.879C208.725 122.673 208.542 122.514 208.311 122.402C208.079 122.29 207.818 122.234 207.529 122.234C207.222 122.234 206.954 122.298 206.725 122.426C206.498 122.551 206.322 122.727 206.197 122.953C206.075 123.18 206.014 123.445 206.014 123.75H205.092C205.092 123.281 205.2 122.87 205.416 122.516C205.632 122.161 205.926 121.885 206.299 121.687C206.674 121.49 207.094 121.391 207.561 121.391C208.029 121.391 208.445 121.49 208.807 121.687C209.169 121.885 209.452 122.152 209.658 122.488C209.864 122.824 209.967 123.198 209.967 123.609C209.967 123.904 209.913 124.191 209.807 124.473C209.702 124.751 209.52 125.062 209.26 125.406C209.002 125.747 208.644 126.164 208.186 126.656L206.389 128.578V128.641H210.107V129.5H205.061ZM214.33 129.609C213.742 129.609 213.24 129.449 212.826 129.129C212.412 128.806 212.096 128.339 211.877 127.727C211.658 127.112 211.549 126.37 211.549 125.5C211.549 124.635 211.658 123.897 211.877 123.285C212.098 122.671 212.416 122.202 212.83 121.879C213.247 121.553 213.747 121.391 214.33 121.391C214.913 121.391 215.412 121.553 215.826 121.879C216.243 122.202 216.561 122.671 216.779 123.285C217.001 123.897 217.111 124.635 217.111 125.5C217.111 126.37 217.002 127.112 216.783 127.727C216.564 128.339 216.248 128.806 215.834 129.129C215.42 129.449 214.919 129.609 214.33 129.609ZM214.33 128.75C214.913 128.75 215.367 128.469 215.689 127.906C216.012 127.344 216.174 126.542 216.174 125.5C216.174 124.807 216.1 124.217 215.951 123.73C215.805 123.243 215.594 122.872 215.318 122.617C215.045 122.362 214.715 122.234 214.33 122.234C213.752 122.234 213.3 122.52 212.975 123.09C212.649 123.658 212.486 124.461 212.486 125.5C212.486 126.193 212.559 126.781 212.705 127.266C212.851 127.75 213.061 128.118 213.334 128.371C213.61 128.624 213.942 128.75 214.33 128.75Z" fill="#3AC569"/>
</g>
<g clip-path="url(#clip5_194_4101)">
<path d="M5.94141 167.5V166.797L8.58203 163.906C8.89193 163.568 9.14714 163.273 9.34766 163.023C9.54818 162.771 9.69661 162.534 9.79297 162.312C9.89193 162.089 9.94141 161.854 9.94141 161.609C9.94141 161.328 9.8737 161.085 9.73828 160.879C9.60547 160.673 9.42318 160.514 9.19141 160.402C8.95964 160.29 8.69922 160.234 8.41016 160.234C8.10286 160.234 7.83464 160.298 7.60547 160.426C7.37891 160.551 7.20313 160.727 7.07813 160.953C6.95573 161.18 6.89453 161.445 6.89453 161.75H5.97266C5.97266 161.281 6.08073 160.87 6.29688 160.516C6.51302 160.161 6.80729 159.885 7.17969 159.687C7.55469 159.49 7.97526 159.391 8.44141 159.391C8.91016 159.391 9.32552 159.49 9.6875 159.687C10.0495 159.885 10.3333 160.152 10.5391 160.488C10.7448 160.824 10.8477 161.198 10.8477 161.609C10.8477 161.904 10.7943 162.191 10.6875 162.473C10.5833 162.751 10.401 163.062 10.1406 163.406C9.88281 163.747 9.52474 164.164 9.06641 164.656L7.26953 166.578V166.641H10.9883V167.5H5.94141ZM15.4141 159.5V167.5H14.4453V160.516H14.3984L12.4453 161.812V160.828L14.4453 159.5H15.4141Z" fill="black"/>
<path d="M38.502 167.5V166.797L41.1426 163.906C41.4525 163.568 41.7077 163.273 41.9082 163.023C42.1087 162.771 42.2572 162.534 42.3535 162.312C42.4525 162.089 42.502 161.854 42.502 161.609C42.502 161.328 42.4342 161.085 42.2988 160.879C42.166 160.673 41.9837 160.514 41.752 160.402C41.5202 160.29 41.2598 160.234 40.9707 160.234C40.6634 160.234 40.3952 160.298 40.166 160.426C39.9395 160.551 39.7637 160.727 39.6387 160.953C39.5163 161.18 39.4551 161.445 39.4551 161.75H38.5332C38.5332 161.281 38.6413 160.87 38.8574 160.516C39.0736 160.161 39.3678 159.885 39.7402 159.687C40.1152 159.49 40.5358 159.391 41.002 159.391C41.4707 159.391 41.8861 159.49 42.248 159.687C42.61 159.885 42.8939 160.152 43.0996 160.488C43.3053 160.824 43.4082 161.198 43.4082 161.609C43.4082 161.904 43.3548 162.191 43.248 162.473C43.1439 162.751 42.9616 163.062 42.7012 163.406C42.4434 163.747 42.0853 164.164 41.627 164.656L39.8301 166.578V166.641H43.5488V167.5H38.502ZM45.1621 167.5V166.797L47.8027 163.906C48.1126 163.568 48.3678 163.273 48.5684 163.023C48.7689 162.771 48.9173 162.534 49.0137 162.312C49.1126 162.089 49.1621 161.854 49.1621 161.609C49.1621 161.328 49.0944 161.085 48.959 160.879C48.8262 160.673 48.6439 160.514 48.4121 160.402C48.1803 160.29 47.9199 160.234 47.6309 160.234C47.3236 160.234 47.0553 160.298 46.8262 160.426C46.5996 160.551 46.4238 160.727 46.2988 160.953C46.1764 161.18 46.1152 161.445 46.1152 161.75H45.1934C45.1934 161.281 45.3014 160.87 45.5176 160.516C45.7337 160.161 46.028 159.885 46.4004 159.687C46.7754 159.49 47.196 159.391 47.6621 159.391C48.1309 159.391 48.5462 159.49 48.9082 159.687C49.2702 159.885 49.554 160.152 49.7598 160.488C49.9655 160.824 50.0684 161.198 50.0684 161.609C50.0684 161.904 50.015 162.191 49.9082 162.473C49.804 162.751 49.6217 163.062 49.3613 163.406C49.1035 163.747 48.7454 164.164 48.2871 164.656L46.4902 166.578V166.641H50.209V167.5H45.1621Z" fill="black"/>
<path d="M71.6621 167.5V166.797L74.3027 163.906C74.6126 163.568 74.8678 163.273 75.0684 163.023C75.2689 162.771 75.4173 162.534 75.5137 162.312C75.6126 162.089 75.6621 161.854 75.6621 161.609C75.6621 161.328 75.5944 161.085 75.459 160.879C75.3262 160.673 75.1439 160.514 74.9121 160.402C74.6803 160.29 74.4199 160.234 74.1309 160.234C73.8236 160.234 73.5553 160.298 73.3262 160.426C73.0996 160.551 72.9238 160.727 72.7988 160.953C72.6764 161.18 72.6152 161.445 72.6152 161.75H71.6934C71.6934 161.281 71.8014 160.87 72.0176 160.516C72.2337 160.161 72.528 159.885 72.9004 159.687C73.2754 159.49 73.696 159.391 74.1621 159.391C74.6309 159.391 75.0462 159.49 75.4082 159.687C75.7702 159.885 76.054 160.152 76.2598 160.488C76.4655 160.824 76.5684 161.198 76.5684 161.609C76.5684 161.904 76.515 162.191 76.4082 162.473C76.304 162.751 76.1217 163.062 75.8613 163.406C75.6035 163.747 75.2454 164.164 74.7871 164.656L72.9902 166.578V166.641H76.709V167.5H71.6621ZM81.0254 167.609C80.5098 167.609 80.0501 167.521 79.6465 167.344C79.2454 167.167 78.9264 166.921 78.6895 166.605C78.4551 166.288 78.3275 165.919 78.3066 165.5H79.291C79.3118 165.758 79.4004 165.98 79.5566 166.168C79.7129 166.353 79.9173 166.496 80.1699 166.598C80.4225 166.699 80.7025 166.75 81.0098 166.75C81.3535 166.75 81.6582 166.69 81.9238 166.57C82.1895 166.451 82.3978 166.284 82.5488 166.07C82.6999 165.857 82.7754 165.609 82.7754 165.328C82.7754 165.034 82.7025 164.775 82.5566 164.551C82.4108 164.324 82.1973 164.147 81.916 164.02C81.6348 163.892 81.291 163.828 80.8848 163.828H80.2441V162.969H80.8848C81.2025 162.969 81.4811 162.911 81.7207 162.797C81.9629 162.682 82.1517 162.521 82.2871 162.312C82.4251 162.104 82.4941 161.859 82.4941 161.578C82.4941 161.307 82.4342 161.072 82.3145 160.871C82.1947 160.671 82.0254 160.514 81.8066 160.402C81.5905 160.29 81.3353 160.234 81.041 160.234C80.765 160.234 80.5046 160.285 80.2598 160.387C80.0176 160.486 79.8197 160.63 79.666 160.82C79.5124 161.008 79.429 161.234 79.416 161.5H78.4785C78.4941 161.081 78.6204 160.714 78.8574 160.398C79.0944 160.081 79.4043 159.833 79.7871 159.656C80.1725 159.479 80.5957 159.391 81.0566 159.391C81.5514 159.391 81.9759 159.491 82.3301 159.691C82.6842 159.889 82.9564 160.151 83.1465 160.477C83.3366 160.802 83.4316 161.154 83.4316 161.531C83.4316 161.982 83.3132 162.366 83.0762 162.684C82.8418 163.001 82.5228 163.221 82.1191 163.344V163.406C82.6243 163.49 83.0189 163.704 83.3027 164.051C83.5866 164.395 83.7285 164.82 83.7285 165.328C83.7285 165.763 83.61 166.154 83.373 166.5C83.1387 166.844 82.8184 167.115 82.4121 167.312C82.0059 167.51 81.5436 167.609 81.0254 167.609Z" fill="black"/>
<path d="M105.055 167.5V166.797L107.696 163.906C108.006 163.568 108.261 163.273 108.461 163.023C108.662 162.771 108.81 162.534 108.907 162.312C109.006 162.089 109.055 161.854 109.055 161.609C109.055 161.328 108.987 161.085 108.852 160.879C108.719 160.673 108.537 160.514 108.305 160.402C108.073 160.29 107.813 160.234 107.524 160.234C107.217 160.234 106.948 160.298 106.719 160.426C106.493 160.551 106.317 160.727 106.192 160.953C106.069 161.18 106.008 161.445 106.008 161.75H105.086C105.086 161.281 105.194 160.87 105.411 160.516C105.627 160.161 105.921 159.885 106.293 159.687C106.668 159.49 107.089 159.391 107.555 159.391C108.024 159.391 108.439 159.49 108.801 159.687C109.163 159.885 109.447 160.152 109.653 160.488C109.859 160.824 109.961 161.198 109.961 161.609C109.961 161.904 109.908 162.191 109.801 162.473C109.697 162.751 109.515 163.062 109.254 163.406C108.997 163.747 108.639 164.164 108.18 164.656L106.383 166.578V166.641H110.102V167.5H105.055ZM111.356 165.859V165.062L114.872 159.5H115.45V160.734H115.059L112.403 164.937V165H117.137V165.859H111.356ZM115.122 167.5V165.617V165.246V159.5H116.043V167.5H115.122Z" fill="black"/>
<path d="M138.486 167.5V166.797L141.126 163.906C141.436 163.568 141.692 163.273 141.892 163.023C142.093 162.771 142.241 162.534 142.337 162.312C142.436 162.089 142.486 161.854 142.486 161.609C142.486 161.328 142.418 161.085 142.283 160.879C142.15 160.673 141.968 160.514 141.736 160.402C141.504 160.29 141.244 160.234 140.955 160.234C140.647 160.234 140.379 160.298 140.15 160.426C139.923 160.551 139.748 160.727 139.623 160.953C139.5 161.18 139.439 161.445 139.439 161.75H138.517C138.517 161.281 138.625 160.87 138.841 160.516C139.057 160.161 139.352 159.885 139.724 159.687C140.099 159.49 140.52 159.391 140.986 159.391C141.455 159.391 141.87 159.49 142.232 159.687C142.594 159.885 142.878 160.152 143.083 160.488C143.289 160.824 143.392 161.198 143.392 161.609C143.392 161.904 143.339 162.191 143.232 162.473C143.128 162.751 142.945 163.062 142.685 163.406C142.427 163.747 142.069 164.164 141.611 164.656L139.814 166.578V166.641H143.533V167.5H138.486ZM147.646 167.609C147.188 167.609 146.775 167.518 146.408 167.336C146.041 167.154 145.746 166.904 145.525 166.586C145.304 166.268 145.182 165.906 145.162 165.5H146.099C146.136 165.862 146.3 166.161 146.591 166.398C146.886 166.633 147.237 166.75 147.646 166.75C147.974 166.75 148.266 166.673 148.521 166.52C148.779 166.366 148.981 166.155 149.126 165.887C149.275 165.616 149.349 165.31 149.349 164.969C149.349 164.62 149.272 164.309 149.119 164.035C148.968 163.759 148.759 163.542 148.494 163.383C148.228 163.224 147.925 163.143 147.583 163.141C147.339 163.138 147.087 163.176 146.83 163.254C146.572 163.329 146.36 163.427 146.193 163.547L145.287 163.437L145.771 159.5H149.927V160.359H146.583L146.302 162.719H146.349C146.513 162.589 146.719 162.48 146.966 162.395C147.214 162.309 147.472 162.266 147.74 162.266C148.229 162.266 148.666 162.383 149.048 162.617C149.434 162.849 149.736 163.167 149.955 163.57C150.176 163.974 150.287 164.435 150.287 164.953C150.287 165.464 150.172 165.919 149.943 166.32C149.716 166.719 149.404 167.034 149.005 167.266C148.607 167.495 148.154 167.609 147.646 167.609Z" fill="black"/>
<path d="M171.732 167.5V166.797L174.373 163.906C174.682 163.568 174.938 163.273 175.138 163.023C175.339 162.771 175.487 162.534 175.583 162.312C175.682 162.089 175.732 161.854 175.732 161.609C175.732 161.328 175.664 161.085 175.529 160.879C175.396 160.673 175.214 160.514 174.982 160.402C174.75 160.29 174.49 160.234 174.201 160.234C173.893 160.234 173.625 160.298 173.396 160.426C173.169 160.551 172.994 160.727 172.869 160.953C172.746 161.18 172.685 161.445 172.685 161.75H171.763C171.763 161.281 171.871 160.87 172.087 160.516C172.304 160.161 172.598 159.885 172.97 159.687C173.345 159.49 173.766 159.391 174.232 159.391C174.701 159.391 175.116 159.49 175.478 159.687C175.84 159.885 176.124 160.152 176.33 160.488C176.535 160.824 176.638 161.198 176.638 161.609C176.638 161.904 176.585 162.191 176.478 162.473C176.374 162.751 176.192 163.062 175.931 163.406C175.673 163.747 175.315 164.164 174.857 164.656L173.06 166.578V166.641H176.779V167.5H171.732ZM181.048 167.609C180.72 167.604 180.392 167.542 180.064 167.422C179.736 167.302 179.436 167.1 179.166 166.816C178.895 166.53 178.677 166.143 178.513 165.656C178.349 165.167 178.267 164.552 178.267 163.812C178.267 163.104 178.333 162.477 178.466 161.93C178.599 161.38 178.792 160.918 179.044 160.543C179.297 160.165 179.602 159.879 179.958 159.684C180.318 159.488 180.723 159.391 181.173 159.391C181.621 159.391 182.02 159.48 182.369 159.66C182.72 159.837 183.007 160.085 183.228 160.402C183.449 160.72 183.593 161.086 183.658 161.5H182.705C182.616 161.141 182.444 160.842 182.189 160.605C181.934 160.368 181.595 160.25 181.173 160.25C180.554 160.25 180.065 160.52 179.708 161.059C179.354 161.598 179.176 162.354 179.173 163.328H179.236C179.382 163.107 179.555 162.918 179.755 162.762C179.958 162.603 180.182 162.48 180.427 162.395C180.672 162.309 180.931 162.266 181.205 162.266C181.663 162.266 182.082 162.38 182.462 162.609C182.843 162.836 183.147 163.15 183.376 163.551C183.606 163.949 183.72 164.406 183.72 164.922C183.72 165.417 183.61 165.87 183.388 166.281C183.167 166.69 182.856 167.016 182.455 167.258C182.056 167.497 181.587 167.615 181.048 167.609ZM181.048 166.75C181.376 166.75 181.671 166.668 181.931 166.504C182.194 166.34 182.401 166.12 182.552 165.844C182.706 165.568 182.783 165.26 182.783 164.922C182.783 164.591 182.708 164.29 182.56 164.02C182.414 163.746 182.212 163.529 181.955 163.367C181.699 163.206 181.408 163.125 181.08 163.125C180.832 163.125 180.602 163.174 180.388 163.273C180.175 163.37 179.987 163.503 179.826 163.672C179.667 163.841 179.542 164.035 179.451 164.254C179.36 164.47 179.314 164.698 179.314 164.937C179.314 165.255 179.388 165.552 179.537 165.828C179.688 166.104 179.893 166.327 180.154 166.496C180.417 166.665 180.715 166.75 181.048 166.75Z" fill="#3AC569"/>
<path d="M205.356 167.5V166.797L207.997 163.906C208.306 163.568 208.562 163.273 208.762 163.023C208.963 162.771 209.111 162.534 209.208 162.312C209.306 162.089 209.356 161.854 209.356 161.609C209.356 161.328 209.288 161.085 209.153 160.879C209.02 160.673 208.838 160.514 208.606 160.402C208.374 160.29 208.114 160.234 207.825 160.234C207.517 160.234 207.249 160.298 207.02 160.426C206.793 160.551 206.618 160.727 206.493 160.953C206.37 161.18 206.309 161.445 206.309 161.75H205.387C205.387 161.281 205.495 160.87 205.711 160.516C205.928 160.161 206.222 159.885 206.594 159.687C206.969 159.49 207.39 159.391 207.856 159.391C208.325 159.391 208.74 159.49 209.102 159.687C209.464 159.885 209.748 160.152 209.954 160.488C210.159 160.824 210.262 161.198 210.262 161.609C210.262 161.904 210.209 162.191 210.102 162.473C209.998 162.751 209.816 163.062 209.555 163.406C209.297 163.747 208.939 164.164 208.481 164.656L206.684 166.578V166.641H210.403V167.5H205.356ZM212.266 167.5L215.844 160.422V160.359H211.719V159.5H216.844V160.406L213.282 167.5H212.266Z" fill="#3AC569"/>
</g>
<g clip-path="url(#clip6_194_4101)">
<path d="M5.10889 205.5V204.797L7.74951 201.906C8.05941 201.568 8.31462 201.273 8.51514 201.023C8.71566 200.771 8.8641 200.534 8.96045 200.312C9.05941 200.089 9.10889 199.854 9.10889 199.609C9.10889 199.328 9.04118 199.085 8.90576 198.879C8.77295 198.673 8.59066 198.514 8.35889 198.402C8.12712 198.29 7.8667 198.234 7.57764 198.234C7.27035 198.234 7.00212 198.298 6.77295 198.426C6.54639 198.551 6.37061 198.727 6.24561 198.953C6.12321 199.18 6.06201 199.445 6.06201 199.75H5.14014C5.14014 199.281 5.24821 198.87 5.46436 198.516C5.6805 198.161 5.97477 197.885 6.34717 197.687C6.72217 197.49 7.14274 197.391 7.60889 197.391C8.07764 197.391 8.493 197.49 8.85498 197.687C9.21696 197.885 9.50081 198.152 9.70654 198.488C9.91227 198.824 10.0151 199.198 10.0151 199.609C10.0151 199.904 9.96175 200.191 9.85498 200.473C9.75081 200.751 9.56852 201.062 9.30811 201.406C9.05029 201.747 8.69222 202.164 8.23389 202.656L6.43701 204.578V204.641H10.1558V205.5H5.10889ZM14.3315 205.609C13.7951 205.609 13.3211 205.514 12.9097 205.324C12.5008 205.132 12.1818 204.867 11.9526 204.531C11.7235 204.193 11.6102 203.807 11.6128 203.375C11.6102 203.036 11.6766 202.724 11.812 202.437C11.9474 202.148 12.1323 201.908 12.3667 201.715C12.6037 201.52 12.868 201.396 13.1597 201.344V201.297C12.7769 201.198 12.4722 200.983 12.2456 200.652C12.019 200.319 11.9071 199.94 11.9097 199.516C11.9071 199.109 12.0099 198.746 12.2183 198.426C12.4266 198.105 12.7131 197.853 13.0776 197.668C13.4448 197.483 13.8628 197.391 14.3315 197.391C14.7951 197.391 15.2091 197.483 15.5737 197.668C15.9383 197.853 16.2248 198.105 16.4331 198.426C16.644 198.746 16.7508 199.109 16.7534 199.516C16.7508 199.94 16.6349 200.319 16.4058 200.652C16.1792 200.983 15.8784 201.198 15.5034 201.297V201.344C15.7925 201.396 16.0529 201.52 16.2847 201.715C16.5164 201.908 16.7013 202.148 16.8394 202.437C16.9774 202.724 17.0477 203.036 17.0503 203.375C17.0477 203.807 16.9305 204.193 16.6987 204.531C16.4696 204.867 16.1506 205.132 15.7417 205.324C15.3354 205.514 14.8654 205.609 14.3315 205.609ZM14.3315 204.75C14.6935 204.75 15.006 204.691 15.269 204.574C15.5321 204.457 15.7352 204.292 15.8784 204.078C16.0216 203.865 16.0946 203.615 16.0972 203.328C16.0946 203.026 16.0164 202.759 15.8628 202.527C15.7091 202.296 15.4995 202.113 15.2339 201.98C14.9709 201.848 14.6701 201.781 14.3315 201.781C13.9904 201.781 13.6857 201.848 13.4175 201.98C13.1519 202.113 12.9422 202.296 12.7886 202.527C12.6375 202.759 12.5633 203.026 12.5659 203.328C12.5633 203.615 12.6323 203.865 12.7729 204.078C12.9162 204.292 13.1206 204.457 13.3862 204.574C13.6519 204.691 13.967 204.75 14.3315 204.75ZM14.3315 200.953C14.618 200.953 14.8719 200.896 15.0933 200.781C15.3172 200.667 15.493 200.507 15.6206 200.301C15.7482 200.095 15.8133 199.854 15.8159 199.578C15.8133 199.307 15.7495 199.072 15.6245 198.871C15.4995 198.668 15.3263 198.512 15.105 198.402C14.8836 198.29 14.6258 198.234 14.3315 198.234C14.0321 198.234 13.7703 198.29 13.5464 198.402C13.3224 198.512 13.1493 198.668 13.0269 198.871C12.9045 199.072 12.8446 199.307 12.8472 199.578C12.8446 199.854 12.9058 200.095 13.0308 200.301C13.1584 200.507 13.3341 200.667 13.5581 200.781C13.7821 200.896 14.0399 200.953 14.3315 200.953Z" fill="black"/>
<path d="M38.3999 205.5V204.797L41.0405 201.906C41.3504 201.568 41.6056 201.273 41.8062 201.023C42.0067 200.771 42.1551 200.534 42.2515 200.312C42.3504 200.089 42.3999 199.854 42.3999 199.609C42.3999 199.328 42.3322 199.085 42.1968 198.879C42.064 198.673 41.8817 198.514 41.6499 198.402C41.4181 198.29 41.1577 198.234 40.8687 198.234C40.5614 198.234 40.2931 198.298 40.064 198.426C39.8374 198.551 39.6616 198.727 39.5366 198.953C39.4142 199.18 39.353 199.445 39.353 199.75H38.4312C38.4312 199.281 38.5392 198.87 38.7554 198.516C38.9715 198.161 39.2658 197.885 39.6382 197.687C40.0132 197.49 40.4338 197.391 40.8999 197.391C41.3687 197.391 41.784 197.49 42.146 197.687C42.508 197.885 42.7918 198.152 42.9976 198.488C43.2033 198.824 43.3062 199.198 43.3062 199.609C43.3062 199.904 43.2528 200.191 43.146 200.473C43.0418 200.751 42.8595 201.062 42.5991 201.406C42.3413 201.747 41.9832 202.164 41.5249 202.656L39.728 204.578V204.641H43.4468V205.5H38.3999ZM47.6069 197.391C47.9351 197.393 48.2632 197.456 48.5913 197.578C48.9194 197.701 49.2189 197.904 49.4897 198.187C49.7606 198.469 49.978 198.853 50.1421 199.34C50.3062 199.827 50.3882 200.437 50.3882 201.172C50.3882 201.883 50.3205 202.514 50.1851 203.066C50.0522 203.616 49.8595 204.079 49.6069 204.457C49.3569 204.835 49.0522 205.121 48.6929 205.316C48.3361 205.512 47.9325 205.609 47.4819 205.609C47.034 205.609 46.6343 205.521 46.2827 205.344C45.9338 205.164 45.6473 204.915 45.4233 204.598C45.202 204.277 45.0601 203.906 44.9976 203.484H45.9507C46.0366 203.852 46.2072 204.155 46.4624 204.395C46.7202 204.632 47.0601 204.75 47.4819 204.75C48.0991 204.75 48.5861 204.48 48.9429 203.941C49.3022 203.402 49.4819 202.641 49.4819 201.656H49.4194C49.2736 201.875 49.1004 202.064 48.8999 202.223C48.6994 202.382 48.4767 202.504 48.2319 202.59C47.9871 202.676 47.7267 202.719 47.4507 202.719C46.9924 202.719 46.5718 202.605 46.189 202.379C45.8088 202.15 45.5041 201.836 45.2749 201.437C45.0483 201.036 44.9351 200.578 44.9351 200.062C44.9351 199.573 45.0444 199.125 45.2632 198.719C45.4845 198.31 45.7944 197.984 46.1929 197.742C46.5939 197.5 47.0653 197.383 47.6069 197.391ZM47.6069 198.25C47.2788 198.25 46.9832 198.332 46.7202 198.496C46.4598 198.658 46.2528 198.876 46.0991 199.152C45.9481 199.426 45.8726 199.729 45.8726 200.062C45.8726 200.396 45.9455 200.699 46.0913 200.973C46.2397 201.243 46.4416 201.46 46.6968 201.621C46.9546 201.78 47.2476 201.859 47.5757 201.859C47.8231 201.859 48.0535 201.811 48.2671 201.715C48.4806 201.616 48.6668 201.482 48.8257 201.312C48.9871 201.141 49.1134 200.947 49.2046 200.73C49.2957 200.512 49.3413 200.284 49.3413 200.047C49.3413 199.734 49.2658 199.441 49.1147 199.168C48.9663 198.895 48.7606 198.673 48.4976 198.504C48.2371 198.335 47.9403 198.25 47.6069 198.25Z" fill="black"/>
<path d="M74.2578 205.609C73.7422 205.609 73.2826 205.521 72.8789 205.344C72.4779 205.167 72.1589 204.921 71.9219 204.605C71.6875 204.288 71.5599 203.919 71.5391 203.5H72.5234C72.5443 203.758 72.6328 203.98 72.7891 204.168C72.9453 204.353 73.1497 204.496 73.4023 204.598C73.6549 204.699 73.9349 204.75 74.2422 204.75C74.5859 204.75 74.8906 204.69 75.1563 204.57C75.4219 204.451 75.6302 204.284 75.7813 204.07C75.9323 203.857 76.0078 203.609 76.0078 203.328C76.0078 203.034 75.9349 202.775 75.7891 202.551C75.6432 202.324 75.4297 202.147 75.1484 202.02C74.8672 201.892 74.5234 201.828 74.1172 201.828H73.4766V200.969H74.1172C74.4349 200.969 74.7135 200.911 74.9531 200.797C75.1953 200.682 75.3841 200.521 75.5195 200.312C75.6576 200.104 75.7266 199.859 75.7266 199.578C75.7266 199.307 75.6667 199.072 75.5469 198.871C75.4271 198.671 75.2578 198.514 75.0391 198.402C74.8229 198.29 74.5677 198.234 74.2734 198.234C73.9974 198.234 73.737 198.285 73.4922 198.387C73.25 198.486 73.0521 198.63 72.8984 198.82C72.7448 199.008 72.6615 199.234 72.6484 199.5H71.7109C71.7266 199.081 71.8529 198.714 72.0898 198.398C72.3268 198.081 72.6367 197.833 73.0195 197.656C73.4049 197.479 73.8281 197.391 74.2891 197.391C74.7839 197.391 75.2083 197.491 75.5625 197.691C75.9167 197.889 76.1888 198.151 76.3789 198.477C76.569 198.802 76.6641 199.154 76.6641 199.531C76.6641 199.982 76.5456 200.366 76.3086 200.684C76.0742 201.001 75.7552 201.221 75.3516 201.344V201.406C75.8568 201.49 76.2513 201.704 76.5352 202.051C76.819 202.395 76.9609 202.82 76.9609 203.328C76.9609 203.763 76.8424 204.154 76.6055 204.5C76.3711 204.844 76.0508 205.115 75.6445 205.312C75.2383 205.51 74.776 205.609 74.2578 205.609ZM81.168 205.609C80.5794 205.609 80.0781 205.449 79.6641 205.129C79.25 204.806 78.9336 204.339 78.7148 203.727C78.4961 203.112 78.3867 202.37 78.3867 201.5C78.3867 200.635 78.4961 199.897 78.7148 199.285C78.9362 198.671 79.2539 198.202 79.668 197.879C80.0846 197.553 80.5846 197.391 81.168 197.391C81.7513 197.391 82.25 197.553 82.6641 197.879C83.0807 198.202 83.3984 198.671 83.6172 199.285C83.8385 199.897 83.9492 200.635 83.9492 201.5C83.9492 202.37 83.8398 203.112 83.6211 203.727C83.4023 204.339 83.0859 204.806 82.6719 205.129C82.2578 205.449 81.7565 205.609 81.168 205.609ZM81.168 204.75C81.7513 204.75 82.2044 204.469 82.5273 203.906C82.8503 203.344 83.0117 202.542 83.0117 201.5C83.0117 200.807 82.9375 200.217 82.7891 199.73C82.6432 199.243 82.4323 198.872 82.1562 198.617C81.8828 198.362 81.5534 198.234 81.168 198.234C80.5898 198.234 80.138 198.52 79.8125 199.09C79.487 199.658 79.3242 200.461 79.3242 201.5C79.3242 202.193 79.3971 202.781 79.543 203.266C79.6888 203.75 79.8984 204.118 80.1719 204.371C80.4479 204.624 80.7799 204.75 81.168 204.75Z" fill="black"/>
<path d="M112.084 197.5V205.5H111.115V198.516H111.068L109.115 199.812V198.828L111.115 197.5H112.084Z" fill="#616161"/>
<path d="M141.832 205.5V204.797L144.473 201.906C144.783 201.568 145.038 201.273 145.238 201.023C145.439 200.771 145.587 200.534 145.684 200.312C145.783 200.089 145.832 199.854 145.832 199.609C145.832 199.328 145.764 199.085 145.629 198.879C145.496 198.673 145.314 198.514 145.082 198.402C144.85 198.29 144.59 198.234 144.301 198.234C143.993 198.234 143.725 198.298 143.496 198.426C143.27 198.551 143.094 198.727 142.969 198.953C142.846 199.18 142.785 199.445 142.785 199.75H141.863C141.863 199.281 141.971 198.87 142.188 198.516C142.404 198.161 142.698 197.885 143.07 197.687C143.445 197.49 143.866 197.391 144.332 197.391C144.801 197.391 145.216 197.49 145.578 197.687C145.94 197.885 146.224 198.152 146.43 198.488C146.635 198.824 146.738 199.198 146.738 199.609C146.738 199.904 146.685 200.191 146.578 200.473C146.474 200.751 146.292 201.062 146.031 201.406C145.773 201.747 145.415 202.164 144.957 202.656L143.16 204.578V204.641H146.879V205.5H141.832Z" fill="#616161"/>
<path d="M177.695 205.609C177.18 205.609 176.72 205.521 176.316 205.344C175.915 205.167 175.596 204.921 175.359 204.605C175.125 204.288 174.997 203.919 174.977 203.5H175.961C175.982 203.758 176.07 203.98 176.227 204.168C176.383 204.353 176.587 204.496 176.84 204.598C177.092 204.699 177.372 204.75 177.68 204.75C178.023 204.75 178.328 204.69 178.594 204.57C178.859 204.451 179.068 204.284 179.219 204.07C179.37 203.857 179.445 203.609 179.445 203.328C179.445 203.034 179.372 202.775 179.227 202.551C179.081 202.324 178.867 202.147 178.586 202.02C178.305 201.892 177.961 201.828 177.555 201.828H176.914V200.969H177.555C177.872 200.969 178.151 200.911 178.391 200.797C178.633 200.682 178.822 200.521 178.957 200.312C179.095 200.104 179.164 199.859 179.164 199.578C179.164 199.307 179.104 199.072 178.984 198.871C178.865 198.671 178.695 198.514 178.477 198.402C178.26 198.29 178.005 198.234 177.711 198.234C177.435 198.234 177.174 198.285 176.93 198.387C176.688 198.486 176.49 198.63 176.336 198.82C176.182 199.008 176.099 199.234 176.086 199.5H175.148C175.164 199.081 175.29 198.714 175.527 198.398C175.764 198.081 176.074 197.833 176.457 197.656C176.842 197.479 177.266 197.391 177.727 197.391C178.221 197.391 178.646 197.491 179 197.691C179.354 197.889 179.626 198.151 179.816 198.477C180.007 198.802 180.102 199.154 180.102 199.531C180.102 199.982 179.983 200.366 179.746 200.684C179.512 201.001 179.193 201.221 178.789 201.344V201.406C179.294 201.49 179.689 201.704 179.973 202.051C180.257 202.395 180.398 202.82 180.398 203.328C180.398 203.763 180.28 204.154 180.043 204.5C179.809 204.844 179.488 205.115 179.082 205.312C178.676 205.51 178.214 205.609 177.695 205.609Z" fill="#3AC569"/>
<path d="M208.112 203.859V203.062L211.627 197.5H212.206V198.734H211.815L209.159 202.937V203H213.893V203.859H208.112ZM211.877 205.5V203.617V203.246V197.5H212.799V205.5H211.877Z" fill="#3AC569"/>
</g>
<g clip-path="url(#clip7_194_4101)">
<path d="M10.9819 243.609C10.5236 243.609 10.1108 243.518 9.74365 243.336C9.37646 243.154 9.08219 242.904 8.86084 242.586C8.63949 242.268 8.51839 241.906 8.49756 241.5H9.43506C9.47152 241.862 9.63558 242.161 9.92725 242.398C10.2215 242.633 10.5731 242.75 10.9819 242.75C11.3101 242.75 11.6017 242.673 11.8569 242.52C12.1147 242.366 12.3166 242.155 12.4624 241.887C12.6108 241.616 12.6851 241.31 12.6851 240.969C12.6851 240.62 12.6082 240.309 12.4546 240.035C12.3035 239.759 12.0952 239.542 11.8296 239.383C11.564 239.224 11.2606 239.143 10.9194 239.141C10.6746 239.138 10.4233 239.176 10.1655 239.254C9.90771 239.329 9.69548 239.427 9.52881 239.547L8.62256 239.437L9.10693 235.5H13.2632V236.359H9.91943L9.63818 238.719H9.68506C9.84912 238.589 10.0549 238.48 10.3022 238.395C10.5496 238.309 10.8075 238.266 11.0757 238.266C11.5653 238.266 12.0015 238.383 12.3843 238.617C12.7697 238.849 13.0718 239.167 13.2905 239.57C13.5119 239.974 13.6226 240.435 13.6226 240.953C13.6226 241.464 13.508 241.919 13.2788 242.32C13.0522 242.719 12.7397 243.034 12.3413 243.266C11.9429 243.495 11.4897 243.609 10.9819 243.609Z" fill="#616161"/>
<path d="M44.3862 243.609C44.0581 243.604 43.73 243.542 43.4019 243.422C43.0737 243.302 42.7743 243.1 42.5034 242.816C42.2326 242.53 42.0151 242.143 41.8511 241.656C41.687 241.167 41.605 240.552 41.605 239.812C41.605 239.104 41.6714 238.477 41.8042 237.93C41.937 237.38 42.1297 236.918 42.3823 236.543C42.6349 236.165 42.9396 235.879 43.2964 235.684C43.6558 235.488 44.0607 235.391 44.5112 235.391C44.9591 235.391 45.3576 235.48 45.7065 235.66C46.0581 235.837 46.3446 236.085 46.5659 236.402C46.7873 236.72 46.9305 237.086 46.9956 237.5H46.0425C45.9539 237.141 45.7821 236.842 45.5269 236.605C45.2716 236.368 44.9331 236.25 44.5112 236.25C43.8914 236.25 43.4032 236.52 43.0464 237.059C42.6922 237.598 42.5138 238.354 42.5112 239.328H42.5737C42.7196 239.107 42.8927 238.918 43.0933 238.762C43.2964 238.603 43.5203 238.48 43.7651 238.395C44.0099 238.309 44.269 238.266 44.5425 238.266C45.0008 238.266 45.4201 238.38 45.8003 238.609C46.1805 238.836 46.4852 239.15 46.7144 239.551C46.9435 239.949 47.0581 240.406 47.0581 240.922C47.0581 241.417 46.9474 241.87 46.7261 242.281C46.5047 242.69 46.1935 243.016 45.7925 243.258C45.394 243.497 44.9253 243.615 44.3862 243.609ZM44.3862 242.75C44.7144 242.75 45.0086 242.668 45.269 242.504C45.5321 242.34 45.7391 242.12 45.8901 241.844C46.0438 241.568 46.1206 241.26 46.1206 240.922C46.1206 240.591 46.0464 240.29 45.8979 240.02C45.7521 239.746 45.5503 239.529 45.2925 239.367C45.0373 239.206 44.7456 239.125 44.4175 239.125C44.1701 239.125 43.9396 239.174 43.7261 239.273C43.5125 239.37 43.325 239.503 43.1636 239.672C43.0047 239.841 42.8797 240.035 42.7886 240.254C42.6974 240.47 42.6519 240.698 42.6519 240.937C42.6519 241.255 42.7261 241.552 42.8745 241.828C43.0256 242.104 43.2313 242.327 43.4917 242.496C43.7547 242.665 44.0529 242.75 44.3862 242.75Z" fill="#616161"/>
<path d="M75.6021 243.5L79.1802 236.422V236.359H75.0552V235.5H80.1802V236.406L76.6177 243.5H75.6021Z" fill="#616161"/>
<path d="M111.001 243.609C110.465 243.609 109.991 243.514 109.58 243.324C109.171 243.132 108.852 242.867 108.623 242.531C108.393 242.193 108.28 241.807 108.283 241.375C108.28 241.036 108.347 240.724 108.482 240.437C108.617 240.148 108.802 239.908 109.037 239.715C109.274 239.52 109.538 239.396 109.83 239.344V239.297C109.447 239.198 109.142 238.983 108.916 238.652C108.689 238.319 108.577 237.94 108.58 237.516C108.577 237.109 108.68 236.746 108.888 236.426C109.097 236.105 109.383 235.853 109.748 235.668C110.115 235.483 110.533 235.391 111.001 235.391C111.465 235.391 111.879 235.483 112.244 235.668C112.608 235.853 112.895 236.105 113.103 236.426C113.314 236.746 113.421 237.109 113.423 237.516C113.421 237.94 113.305 238.319 113.076 238.652C112.849 238.983 112.548 239.198 112.173 239.297V239.344C112.462 239.396 112.723 239.52 112.955 239.715C113.186 239.908 113.371 240.148 113.509 240.437C113.647 240.724 113.718 241.036 113.72 241.375C113.718 241.807 113.6 242.193 113.369 242.531C113.139 242.867 112.82 243.132 112.412 243.324C112.005 243.514 111.535 243.609 111.001 243.609ZM111.001 242.75C111.363 242.75 111.676 242.691 111.939 242.574C112.202 242.457 112.405 242.292 112.548 242.078C112.692 241.865 112.764 241.615 112.767 241.328C112.764 241.026 112.686 240.759 112.533 240.527C112.379 240.296 112.169 240.113 111.904 239.98C111.641 239.848 111.34 239.781 111.001 239.781C110.66 239.781 110.356 239.848 110.087 239.98C109.822 240.113 109.612 240.296 109.458 240.527C109.307 240.759 109.233 241.026 109.236 241.328C109.233 241.615 109.302 241.865 109.443 242.078C109.586 242.292 109.791 242.457 110.056 242.574C110.322 242.691 110.637 242.75 111.001 242.75ZM111.001 238.953C111.288 238.953 111.542 238.896 111.763 238.781C111.987 238.667 112.163 238.507 112.291 238.301C112.418 238.095 112.483 237.854 112.486 237.578C112.483 237.307 112.419 237.072 112.294 236.871C112.169 236.668 111.996 236.512 111.775 236.402C111.554 236.29 111.296 236.234 111.001 236.234C110.702 236.234 110.44 236.29 110.216 236.402C109.992 236.512 109.819 236.668 109.697 236.871C109.574 237.072 109.514 237.307 109.517 237.578C109.514 237.854 109.576 238.095 109.701 238.301C109.828 238.507 110.004 238.667 110.228 238.781C110.452 238.896 110.71 238.953 111.001 238.953Z" fill="#616161"/>
<path d="M144.277 235.391C144.605 235.393 144.933 235.456 145.261 235.578C145.589 235.701 145.889 235.904 146.16 236.187C146.431 236.469 146.648 236.853 146.812 237.34C146.976 237.827 147.058 238.437 147.058 239.172C147.058 239.883 146.99 240.514 146.855 241.066C146.722 241.616 146.529 242.079 146.277 242.457C146.027 242.835 145.722 243.121 145.363 243.316C145.006 243.512 144.602 243.609 144.152 243.609C143.704 243.609 143.304 243.521 142.953 243.344C142.604 243.164 142.317 242.915 142.093 242.598C141.872 242.277 141.73 241.906 141.667 241.484H142.621C142.707 241.852 142.877 242.155 143.132 242.395C143.39 242.632 143.73 242.75 144.152 242.75C144.769 242.75 145.256 242.48 145.613 241.941C145.972 241.402 146.152 240.641 146.152 239.656H146.089C145.944 239.875 145.77 240.064 145.57 240.223C145.369 240.382 145.147 240.504 144.902 240.59C144.657 240.676 144.397 240.719 144.121 240.719C143.662 240.719 143.242 240.605 142.859 240.379C142.479 240.15 142.174 239.836 141.945 239.437C141.718 239.036 141.605 238.578 141.605 238.062C141.605 237.573 141.714 237.125 141.933 236.719C142.154 236.31 142.464 235.984 142.863 235.742C143.264 235.5 143.735 235.383 144.277 235.391ZM144.277 236.25C143.949 236.25 143.653 236.332 143.39 236.496C143.13 236.658 142.923 236.876 142.769 237.152C142.618 237.426 142.542 237.729 142.542 238.062C142.542 238.396 142.615 238.699 142.761 238.973C142.91 239.243 143.111 239.46 143.367 239.621C143.625 239.78 143.917 239.859 144.246 239.859C144.493 239.859 144.723 239.811 144.937 239.715C145.151 239.616 145.337 239.482 145.496 239.312C145.657 239.141 145.783 238.947 145.875 238.73C145.966 238.512 146.011 238.284 146.011 238.047C146.011 237.734 145.936 237.441 145.785 237.168C145.636 236.895 145.431 236.673 145.167 236.504C144.907 236.335 144.61 236.25 144.277 236.25Z" fill="#616161"/>
<path d="M175.312 235.5V243.5H174.344V236.516H174.297L172.344 237.812V236.828L174.344 235.5H175.312ZM180.223 243.609C179.634 243.609 179.133 243.449 178.719 243.129C178.305 242.806 177.988 242.339 177.77 241.727C177.551 241.112 177.441 240.37 177.441 239.5C177.441 238.635 177.551 237.897 177.77 237.285C177.991 236.671 178.309 236.202 178.723 235.879C179.139 235.553 179.639 235.391 180.223 235.391C180.806 235.391 181.305 235.553 181.719 235.879C182.135 236.202 182.453 236.671 182.672 237.285C182.893 237.897 183.004 238.635 183.004 239.5C183.004 240.37 182.895 241.112 182.676 241.727C182.457 242.339 182.141 242.806 181.727 243.129C181.313 243.449 180.811 243.609 180.223 243.609ZM180.223 242.75C180.806 242.75 181.259 242.469 181.582 241.906C181.905 241.344 182.066 240.542 182.066 239.5C182.066 238.807 181.992 238.217 181.844 237.73C181.698 237.243 181.487 236.872 181.211 236.617C180.938 236.362 180.608 236.234 180.223 236.234C179.645 236.234 179.193 236.52 178.867 237.09C178.542 237.658 178.379 238.461 178.379 239.5C178.379 240.193 178.452 240.781 178.598 241.266C178.743 241.75 178.953 242.118 179.227 242.371C179.503 242.624 179.835 242.75 180.223 242.75Z" fill="#3AC569"/>
<path d="M209.527 235.5V243.5H208.559V236.516H208.512L206.559 237.812V236.828L208.559 235.5H209.527ZM214.641 235.5V243.5H213.672V236.516H213.625L211.672 237.812V236.828L213.672 235.5H214.641Z" fill="#3AC569"/>
</g>
</g>
<defs>
<clipPath id="clip0_194_4101">
<rect width="222" height="250" fill="white"/>
</clipPath>
<clipPath id="clip1_194_4101">
<rect width="222" height="22" fill="white"/>
</clipPath>
<clipPath id="clip2_194_4101">
<rect width="222" height="22" fill="white" transform="translate(0 38)"/>
</clipPath>
<clipPath id="clip3_194_4101">
<rect width="222" height="22" fill="white" transform="translate(0 76)"/>
</clipPath>
<clipPath id="clip4_194_4101">
<rect width="222" height="22" fill="white" transform="translate(0 114)"/>
</clipPath>
<clipPath id="clip5_194_4101">
<rect width="222" height="22" fill="white" transform="translate(0 152)"/>
</clipPath>
<clipPath id="clip6_194_4101">
<rect width="222" height="22" fill="white" transform="translate(0 190)"/>
</clipPath>
<clipPath id="clip7_194_4101">
<rect width="222" height="22" fill="white" transform="translate(0 228)"/>
</clipPath>
</defs>
</svg>
